<mxfile host="app.diagrams.net" modified="2023-04-28T05:27:29.838Z" agent="Mozilla/5.0 (Windows NT 10.0; Win64; x64) AppleWebKit/537.36 (KHTML, like Gecko) Chrome/112.0.0.0 Safari/537.36" etag="QNwKaGpZOpp3uosVsqy2" version="21.2.2" type="device">
  <diagram name="Page-1" id="-NNaoNniriUmvPf9zJ3n">
    <mxGraphModel dx="1050" dy="573" grid="1" gridSize="10" guides="1" tooltips="1" connect="1" arrows="1" fold="1" page="1" pageScale="1" pageWidth="850" pageHeight="1100" math="0" shadow="0">
      <root>
        <mxCell id="0" />
        <mxCell id="1" parent="0" />
        <mxCell id="sv8m0tHgnjvyg4Yf8ng9-3" value="" style="edgeStyle=orthogonalEdgeStyle;rounded=0;orthogonalLoop=1;jettySize=auto;html=1;" edge="1" parent="1" source="sv8m0tHgnjvyg4Yf8ng9-1" target="sv8m0tHgnjvyg4Yf8ng9-2">
          <mxGeometry relative="1" as="geometry" />
        </mxCell>
        <mxCell id="sv8m0tHgnjvyg4Yf8ng9-1" value="&lt;font style=&quot;font-size: 26px;&quot;&gt;شروع&lt;/font&gt;" style="ellipse;whiteSpace=wrap;html=1;fillColor=#dae8fc;strokeColor=#6c8ebf;" vertex="1" parent="1">
          <mxGeometry x="365" width="120" height="80" as="geometry" />
        </mxCell>
        <mxCell id="sv8m0tHgnjvyg4Yf8ng9-5" value="" style="edgeStyle=orthogonalEdgeStyle;rounded=0;orthogonalLoop=1;jettySize=auto;html=1;" edge="1" parent="1" source="sv8m0tHgnjvyg4Yf8ng9-2" target="sv8m0tHgnjvyg4Yf8ng9-4">
          <mxGeometry relative="1" as="geometry" />
        </mxCell>
        <mxCell id="sv8m0tHgnjvyg4Yf8ng9-2" value="&lt;font style=&quot;font-size: 22px;&quot;&gt;i = 0&lt;br&gt;t = 0&lt;/font&gt;" style="rounded=0;whiteSpace=wrap;html=1;fillColor=#e1d5e7;strokeColor=#9673a6;" vertex="1" parent="1">
          <mxGeometry x="365" y="110" width="120" height="60" as="geometry" />
        </mxCell>
        <mxCell id="sv8m0tHgnjvyg4Yf8ng9-7" value="" style="edgeStyle=orthogonalEdgeStyle;rounded=0;orthogonalLoop=1;jettySize=auto;html=1;" edge="1" parent="1" source="sv8m0tHgnjvyg4Yf8ng9-4" target="sv8m0tHgnjvyg4Yf8ng9-6">
          <mxGeometry relative="1" as="geometry" />
        </mxCell>
        <mxCell id="sv8m0tHgnjvyg4Yf8ng9-4" value="&lt;div style=&quot;direction: rtl;&quot;&gt;&lt;span style=&quot;background-color: initial;&quot;&gt;&lt;font style=&quot;font-size: 17px;&quot;&gt;nرا بگیر&lt;/font&gt;&lt;/span&gt;&lt;/div&gt;" style="shape=parallelogram;perimeter=parallelogramPerimeter;whiteSpace=wrap;html=1;fixedSize=1;fillColor=#fff2cc;strokeColor=#d6b656;" vertex="1" parent="1">
          <mxGeometry x="365" y="200" width="120" height="60" as="geometry" />
        </mxCell>
        <mxCell id="sv8m0tHgnjvyg4Yf8ng9-9" value="" style="edgeStyle=orthogonalEdgeStyle;rounded=0;orthogonalLoop=1;jettySize=auto;html=1;" edge="1" parent="1" source="sv8m0tHgnjvyg4Yf8ng9-6" target="sv8m0tHgnjvyg4Yf8ng9-8">
          <mxGeometry relative="1" as="geometry" />
        </mxCell>
        <mxCell id="sv8m0tHgnjvyg4Yf8ng9-6" value="&lt;font style=&quot;font-size: 22px;&quot;&gt;t = t + n&lt;br&gt;i = i + 1&lt;br&gt;&lt;/font&gt;" style="rounded=0;whiteSpace=wrap;html=1;fillColor=#e1d5e7;strokeColor=#9673a6;" vertex="1" parent="1">
          <mxGeometry x="365" y="280" width="120" height="60" as="geometry" />
        </mxCell>
        <mxCell id="sv8m0tHgnjvyg4Yf8ng9-10" style="edgeStyle=orthogonalEdgeStyle;rounded=0;orthogonalLoop=1;jettySize=auto;html=1;entryX=1;entryY=0.5;entryDx=0;entryDy=0;" edge="1" parent="1" source="sv8m0tHgnjvyg4Yf8ng9-8" target="sv8m0tHgnjvyg4Yf8ng9-4">
          <mxGeometry relative="1" as="geometry">
            <Array as="points">
              <mxPoint x="600" y="410" />
              <mxPoint x="600" y="230" />
            </Array>
          </mxGeometry>
        </mxCell>
        <mxCell id="sv8m0tHgnjvyg4Yf8ng9-13" value="" style="edgeStyle=orthogonalEdgeStyle;rounded=0;orthogonalLoop=1;jettySize=auto;html=1;" edge="1" parent="1" source="sv8m0tHgnjvyg4Yf8ng9-8" target="sv8m0tHgnjvyg4Yf8ng9-12">
          <mxGeometry relative="1" as="geometry" />
        </mxCell>
        <mxCell id="sv8m0tHgnjvyg4Yf8ng9-8" value="&lt;font style=&quot;font-size: 21px;&quot;&gt;i &amp;lt; 5&lt;/font&gt;" style="rhombus;whiteSpace=wrap;html=1;fillColor=#f8cecc;strokeColor=#b85450;rounded=0;" vertex="1" parent="1">
          <mxGeometry x="385" y="370" width="80" height="80" as="geometry" />
        </mxCell>
        <mxCell id="sv8m0tHgnjvyg4Yf8ng9-11" value="&lt;font style=&quot;font-size: 23px;&quot;&gt;بله&lt;/font&gt;" style="text;html=1;strokeColor=none;fillColor=none;align=center;verticalAlign=middle;whiteSpace=wrap;rounded=0;" vertex="1" parent="1">
          <mxGeometry x="510" y="380" width="60" height="30" as="geometry" />
        </mxCell>
        <mxCell id="sv8m0tHgnjvyg4Yf8ng9-15" value="" style="edgeStyle=orthogonalEdgeStyle;rounded=0;orthogonalLoop=1;jettySize=auto;html=1;" edge="1" parent="1" source="sv8m0tHgnjvyg4Yf8ng9-12" target="sv8m0tHgnjvyg4Yf8ng9-14">
          <mxGeometry relative="1" as="geometry" />
        </mxCell>
        <mxCell id="sv8m0tHgnjvyg4Yf8ng9-12" value="&lt;div style=&quot;direction: rtl;&quot;&gt;&lt;span style=&quot;background-color: initial;&quot;&gt;&lt;font style=&quot;font-size: 22px;&quot;&gt;t را نمایش بده&lt;/font&gt;&lt;/span&gt;&lt;/div&gt;" style="shape=document;whiteSpace=wrap;html=1;boundedLbl=1;fillColor=#fff2cc;strokeColor=#d6b656;" vertex="1" parent="1">
          <mxGeometry x="365" y="470" width="120" height="80" as="geometry" />
        </mxCell>
        <mxCell id="sv8m0tHgnjvyg4Yf8ng9-14" value="&lt;font style=&quot;font-size: 26px;&quot;&gt;پایان&lt;/font&gt;" style="ellipse;whiteSpace=wrap;html=1;fillColor=#dae8fc;strokeColor=#6c8ebf;" vertex="1" parent="1">
          <mxGeometry x="365" y="580" width="120" height="80" as="geometry" />
        </mxCell>
        <mxCell id="sv8m0tHgnjvyg4Yf8ng9-16" value="&lt;font style=&quot;font-size: 23px;&quot;&gt;خیر&lt;/font&gt;" style="text;html=1;strokeColor=none;fillColor=none;align=center;verticalAlign=middle;whiteSpace=wrap;rounded=0;" vertex="1" parent="1">
          <mxGeometry x="350" y="440" width="60" height="30" as="geometry" />
        </mxCell>
      </root>
    </mxGraphModel>
  </diagram>
</mxfile>
